<svg xmlns="http://www.w3.org/2000/svg" xmlns:xlink="http://www.w3.org/1999/xlink" viewBox="0 0 20 20"><path d="M 1 6 C 1 3.791 2.791 2 5 2 L 15 2 C 17.209 2 19 3.791 19 6 L 19 6.382 C 19 6.761 18.786 7.107 18.447 7.276 L 10.447 11.276 C 10.166 11.417 9.834 11.417 9.553 11.276 L 1.553 7.276 C 1.214 7.107 1 6.761 1 6.382 Z" fill="rgb(255, 255, 255)"></path><path d="M 1 10.118 C 1 9.375 1.782 8.891 2.447 9.224 L 9.553 12.776 C 9.834 12.917 10.166 12.917 10.447 12.776 L 17.553 9.224 C 18.218 8.891 19 9.375 19 10.118 L 19 14 C 19 16.209 17.209 18 15 18 L 5 18 C 2.791 18 1 16.209 1 14 Z" fill="rgb(255, 255, 255)" opacity="0.5"></path></svg>